<svg xmlns="http://www.w3.org/2000/svg" width="150" height="150" viewBox="0 0 150 150">
  <g id="企業ロゴ4" transform="translate(-100 -2752)">
    <circle id="楕円形_1" cx="75" cy="75" r="75" transform="translate(100 2752)" fill="#e55934"/>
    <g id="グループ_6" data-name="グループ 6">
      <path id="パス_23" data-name="パス 23" d="M150.1,2816.9V2831h5.6v4H145.4v-18.1Z" fill="#fff"/>
      <path id="パス_24" data-name="パス 24" d="M157.2,2828.7a5.835,5.835,0,0,1,.6-2.6,8.009,8.009,0,0,1,1.5-2.1,8.836,8.836,0,0,1,2.3-1.4,9.426,9.426,0,0,1,3-.5,8.806,8.806,0,0,1,2.9.5,7.22,7.22,0,0,1,2.4,1.4,5.105,5.105,0,0,1,1.5,2.1,6.375,6.375,0,0,1,0,5.4,6.39,6.39,0,0,1-3.9,3.5,9.426,9.426,0,0,1-3,.5,8.806,8.806,0,0,1-2.9-.5,5.937,5.937,0,0,1-2.3-1.4,6.226,6.226,0,0,1-1.5-2.1A6.386,6.386,0,0,1,157.2,2828.7Zm4.6.1a3.6,3.6,0,0,0,.2,1.1l.6.9a1.458,1.458,0,0,0,.9.6,3.592,3.592,0,0,0,1.1.2,4.259,4.259,0,0,0,1.1-.2,2.362,2.362,0,0,0,.9-.6,4.7,4.7,0,0,0,.6-.9,1.978,1.978,0,0,0,.2-1.1,4.256,4.256,0,0,0-.2-1.1l-.6-.9a1.458,1.458,0,0,0-.9-.6,3.592,3.592,0,0,0-1.1-.2,4.259,4.259,0,0,0-1.1.2,2.362,2.362,0,0,0-.9.6,4.7,4.7,0,0,0-.6.9A1.978,1.978,0,0,0,161.8,2828.8Z" fill="#fff"/>
      <path id="パス_25" data-name="パス 25" d="M188.3,2822.7v11.5a9.723,9.723,0,0,1-.1,1.8c-.1.5-.2,1-.3,1.4a5.968,5.968,0,0,1-.9,1.5,4.428,4.428,0,0,1-1.5,1.2,9.256,9.256,0,0,1-2,.8,8.753,8.753,0,0,1-2.4.3,7.108,7.108,0,0,1-2.6-.4,6.81,6.81,0,0,1-2.1-1,5.354,5.354,0,0,1-1.5-1.5,6.392,6.392,0,0,1-.8-1.9H179a1.979,1.979,0,0,0,2.1,1.2,2.865,2.865,0,0,0,2.1-.8,2.817,2.817,0,0,0,.7-2.1v-1.2a6.465,6.465,0,0,1-.9.8,4.06,4.06,0,0,1-.9.5c-.3.1-.6.2-1,.3a3.746,3.746,0,0,1-1.1.1,6.041,6.041,0,0,1-2.4-.5,4.967,4.967,0,0,1-1.9-1.3,5.1,5.1,0,0,1-1.2-2,6.9,6.9,0,0,1-.4-2.5,7.513,7.513,0,0,1,.5-2.6,7.435,7.435,0,0,1,1.3-2.1,5.575,5.575,0,0,1,2-1.4,6.962,6.962,0,0,1,2.5-.5,4.71,4.71,0,0,1,3.7,1.6v-1.3h4.2Zm-9.8,6.1a3.6,3.6,0,0,0,.2,1.1,2.359,2.359,0,0,0,.6.9,1.8,1.8,0,0,0,.9.6,3.592,3.592,0,0,0,1.1.2,4.259,4.259,0,0,0,1.1-.2,2.362,2.362,0,0,0,.9-.6l.6-.9a1.978,1.978,0,0,0,.2-1.1,3.6,3.6,0,0,0-.2-1.1,4.687,4.687,0,0,0-.6-.9,1.8,1.8,0,0,0-.9-.6,3.592,3.592,0,0,0-1.1-.2,4.259,4.259,0,0,0-1.1.2l-.9.6a1.457,1.457,0,0,0-.6.9A4.251,4.251,0,0,0,178.5,2828.8Z" fill="#fff"/>
      <path id="パス_26" data-name="パス 26" d="M190.8,2828.7a5.835,5.835,0,0,1,.6-2.6,8.009,8.009,0,0,1,1.5-2.1,7.439,7.439,0,0,1,2.3-1.4,9.426,9.426,0,0,1,3-.5,8.806,8.806,0,0,1,2.9.5,7.22,7.22,0,0,1,2.4,1.4,5.107,5.107,0,0,1,1.5,2.1,6.375,6.375,0,0,1,0,5.4,8.009,8.009,0,0,1-1.5,2.1,6.913,6.913,0,0,1-2.4,1.4,9.426,9.426,0,0,1-3,.5,8.806,8.806,0,0,1-2.9-.5,5.937,5.937,0,0,1-2.3-1.4,6.229,6.229,0,0,1-1.5-2.1A8.205,8.205,0,0,1,190.8,2828.7Zm4.5.1a3.6,3.6,0,0,0,.2,1.1l.6.9a1.458,1.458,0,0,0,.9.6,3.592,3.592,0,0,0,1.1.2,4.259,4.259,0,0,0,1.1-.2,2.362,2.362,0,0,0,.9-.6,4.7,4.7,0,0,0,.6-.9,1.978,1.978,0,0,0,.2-1.1,4.256,4.256,0,0,0-.2-1.1l-.6-.9a1.458,1.458,0,0,0-.9-.6,3.592,3.592,0,0,0-1.1-.2,4.259,4.259,0,0,0-1.1.2,2.362,2.362,0,0,0-.9.6,4.7,4.7,0,0,0-.6.9A3.6,3.6,0,0,0,195.3,2828.8Z" fill="#fff"/>
    </g>
  </g>
</svg>
