<svg xmlns="http://www.w3.org/2000/svg" width="297" height="68" viewBox="0 0 297 68">
  <g id="ロゴ" transform="translate(-38 -235)">
    <path id="パス_2" d="M38,235H335v68H38Z"/>
    <path id="パス_1" d="M201,235H335v68H191Z" fill="#fff"/>
    <g id="グループ_1" data-name="グループ 1">
      <path id="パス_3" data-name="パス 3" d="M57.8,251.8,64,275.2l7.7-23.4h7.5l7.7,23.4,6.2-23.4h9.8L92.2,288H82.6l-7.1-21-7.1,21H58.8L48,251.8Z" fill="#fff"/>
      <path id="パス_4" data-name="パス 4" d="M103.3,275.5a12.626,12.626,0,0,1,1.1-5.1,11.434,11.434,0,0,1,3.1-4.1,14.675,14.675,0,0,1,4.7-2.8,17.905,17.905,0,0,1,11.8,0,16.529,16.529,0,0,1,4.7,2.7,12.746,12.746,0,0,1,3.1,4.2,13.348,13.348,0,0,1,1.1,5.4,13.708,13.708,0,0,1-1.1,5.4,14.316,14.316,0,0,1-3.1,4.2,12.87,12.87,0,0,1-4.7,2.7,18.854,18.854,0,0,1-6,1,16.255,16.255,0,0,1-5.9-1,15.953,15.953,0,0,1-4.6-2.7,12.456,12.456,0,0,1-3-4.2A14.227,14.227,0,0,1,103.3,275.5Zm9.2.1a5.932,5.932,0,0,0,.5,2.3,5.516,5.516,0,0,0,3,3,6.25,6.25,0,0,0,4.4,0,5.516,5.516,0,0,0,3-3,5.09,5.09,0,0,0,0-4.4,5.516,5.516,0,0,0-3-3,6.25,6.25,0,0,0-4.4,0,5.516,5.516,0,0,0-3,3A4.99,4.99,0,0,0,112.5,275.6Z" fill="#fff"/>
      <path id="パス_5" data-name="パス 5" d="M137.9,263.4h8.7v4A10.043,10.043,0,0,1,150,264a8.878,8.878,0,0,1,4.7-1.2h.7a3.085,3.085,0,0,1,.9.1v8.3a8.08,8.08,0,0,0-3.7-.9,5.523,5.523,0,0,0-4.5,1.8,8.165,8.165,0,0,0-1.5,5.3V288h-8.7V263.4Z" fill="#fff"/>
      <path id="パス_6" data-name="パス 6" d="M168.9,248.2v24.1l9.1-8.9h11.9l-12.3,11.4L190.7,288H178.5l-9.6-10v10h-8.7V248.2Z" fill="#fff"/>
    </g>
    <g id="グループ_2" data-name="グループ 2">
      <path id="パス_7" data-name="パス 7" d="M216.9,251.8l6.2,23.4,7.7-23.4h7.5l7.7,23.4,6.2-23.4H262L251.3,288h-9.6l-7.1-21-7.1,21h-9.6l-10.8-36.2Z"/>
      <path id="パス_8" data-name="パス 8" d="M265.3,253.9a4.058,4.058,0,0,1,.4-1.9,5.715,5.715,0,0,1,1.1-1.6,6.447,6.447,0,0,1,1.6-1.1,4.713,4.713,0,0,1,3.8,0,5.715,5.715,0,0,1,1.6,1.1,6.447,6.447,0,0,1,1.1,1.6,4.713,4.713,0,0,1,0,3.8,5.715,5.715,0,0,1-1.1,1.6,6.447,6.447,0,0,1-1.6,1.1,4.713,4.713,0,0,1-3.8,0,5.715,5.715,0,0,1-1.6-1.1,6.447,6.447,0,0,1-1.1-1.6A4.058,4.058,0,0,1,265.3,253.9Zm9.3,9.5V288h-8.7V263.4Z"/>
      <path id="パス_9" data-name="パス 9" d="M290.2,270.6V288h-8.7V270.6h-2.9v-7.2h2.9V256h8.7v7.4h4.9v7.2Z"/>
      <path id="パス_10" data-name="パス 10" d="M299.5,248.2h8.7v18.3a10.212,10.212,0,0,1,3.6-2.9,11.078,11.078,0,0,1,4.3-.7c3.1,0,5.4.9,7,2.6a9.66,9.66,0,0,1,2.4,6.9V288h-8.7V275.6a12.057,12.057,0,0,0-.3-3,3.165,3.165,0,0,0-1-1.8,4.019,4.019,0,0,0-2.8-1,4.237,4.237,0,0,0-3.4,1.3,5.414,5.414,0,0,0-1.2,3.8V288h-8.7V248.2Z"/>
    </g>
  </g>
</svg>
